<svg width="130" height="32" viewBox="0 0 130 32" fill="none" xmlns="http://www.w3.org/2000/svg">
<g clip-path="url(#clip0_14_32)">
<path d="M115 2.59998C107.047 2.59998 100.6 9.04698 100.6 17C100.6 24.953 107.047 31.4 115 31.4C122.953 31.4 129.4 24.953 129.4 17C129.4 9.04698 122.953 2.59998 115 2.59998ZM111.475 22.9685H108.559V13.5845H111.475V22.9685ZM109.999 12.4325C109.078 12.4325 108.483 11.78 108.483 10.973C108.483 10.1495 109.096 9.51648 110.037 9.51648C110.977 9.51648 111.553 10.1495 111.571 10.973C111.571 11.78 110.977 12.4325 109.999 12.4325ZM122.125 22.9685H119.209V17.768C119.209 16.5575 118.786 15.7355 117.732 15.7355C116.926 15.7355 116.448 16.292 116.236 16.8275C116.158 17.018 116.139 17.288 116.139 17.5565V22.967H113.221V16.577C113.221 15.4055 113.184 14.426 113.145 13.583H115.678L115.812 14.8865H115.87C116.254 14.2745 117.195 13.3715 118.768 13.3715C120.687 13.3715 122.125 14.657 122.125 17.42V22.9685Z" fill="#A7A7A7"/>
</g>
<path d="M66.875 1.875C58.5915 1.875 51.875 8.59152 51.875 16.875C51.875 25.1585 58.5915 31.875 66.875 31.875C75.1585 31.875 81.875 25.1585 81.875 16.875C81.875 8.59152 75.1585 1.875 66.875 1.875ZM74.0837 13.1819C74.0937 13.3393 74.0937 13.5033 74.0937 13.6641C74.0937 18.5792 70.3504 24.2411 63.51 24.2411C61.4007 24.2411 59.4453 23.6283 57.798 22.5737C58.0993 22.6071 58.3873 22.6205 58.6953 22.6205C60.4364 22.6205 62.0368 22.0312 63.3125 21.0335C61.6786 21 60.3058 19.9286 59.8371 18.4554C60.4096 18.5391 60.9252 18.5391 61.5145 18.3884C60.6732 18.2175 59.917 17.7605 59.3744 17.0953C58.8318 16.43 58.5362 15.5973 58.5379 14.7388V14.692C59.0301 14.9699 59.6094 15.1406 60.2154 15.1641C59.7059 14.8245 59.2881 14.3645 58.999 13.8249C58.7099 13.2852 58.5584 12.6825 58.558 12.0703C58.558 11.3772 58.7388 10.7444 59.0636 10.1953C59.9974 11.3449 61.1627 12.2851 62.4837 12.9548C63.8047 13.6245 65.2518 14.0088 66.731 14.0826C66.2054 11.5547 68.0938 9.50893 70.3638 9.50893C71.4353 9.50893 72.3996 9.95759 73.0792 10.6808C73.9196 10.5234 74.7232 10.2087 75.4397 9.78683C75.1618 10.6473 74.5792 11.3739 73.8058 11.8326C74.5558 11.7522 75.279 11.5446 75.9487 11.2533C75.4431 11.9967 74.8103 12.6562 74.0837 13.1819Z" fill="#A7A7A7"/>
<path fill-rule="evenodd" clip-rule="evenodd" d="M15 2C6.7125 2 0 8.7125 0 17C0 23.6375 4.29375 29.2437 10.2563 31.2313C11.0063 31.3625 11.2875 30.9125 11.2875 30.5188C11.2875 30.1625 11.2688 28.9813 11.2688 27.725C7.5 28.4188 6.525 26.8062 6.225 25.9625C6.05625 25.5312 5.325 24.2 4.6875 23.8438C4.1625 23.5625 3.4125 22.8687 4.66875 22.85C5.85 22.8313 6.69375 23.9375 6.975 24.3875C8.325 26.6562 10.4812 26.0187 11.3438 25.625C11.475 24.65 11.8688 23.9937 12.3 23.6187C8.9625 23.2437 5.475 21.95 5.475 16.2125C5.475 14.5813 6.05625 13.2313 7.0125 12.1813C6.8625 11.8063 6.3375 10.2688 7.1625 8.20625C7.1625 8.20625 8.41875 7.8125 11.2875 9.74375C12.4875 9.40625 13.7625 9.2375 15.0375 9.2375C16.3125 9.2375 17.5875 9.40625 18.7875 9.74375C21.6562 7.79375 22.9125 8.20625 22.9125 8.20625C23.7375 10.2688 23.2125 11.8063 23.0625 12.1813C24.0188 13.2313 24.6 14.5625 24.6 16.2125C24.6 21.9688 21.0938 23.2437 17.7563 23.6187C18.3 24.0875 18.7688 24.9875 18.7688 26.3937C18.7688 28.4 18.75 30.0125 18.75 30.5188C18.75 30.9125 19.0312 31.3813 19.7812 31.2313C22.759 30.2259 25.3465 28.3121 27.1796 25.7592C29.0127 23.2063 29.9991 20.1429 30 17C30 8.7125 23.2875 2 15 2Z" fill="#A7A7A7"/>
<defs>
<clipPath id="clip0_14_32">
<rect width="30" height="30" fill="white" transform="translate(100 2)"/>
</clipPath>
</defs>
</svg>
